<?xml version="1.0" standalone="no"?>
<!DOCTYPE svg PUBLIC "-//W3C//DTD SVG 1.1//EN" "http://www.w3.org/Graphics/SVG/1.1/DTD/svg11.dtd" >
<svg xmlns="http://www.w3.org/2000/svg">
<metadata>
Created by FontForge 20120731 at Mon May 15 14:25:53 2017
 By admin
</metadata>
<defs>
<font id="iconfont" horiz-adv-x="1024" >
  <font-face 
    font-family="iconfont"
    font-weight="500"
    font-stretch="normal"
    units-per-em="1024"
    panose-1="2 0 6 3 0 0 0 0 0 0"
    ascent="896"
    descent="-128"
    x-height="792"
    bbox="-15.92 -224 1211 897"
    underline-thickness="0"
    underline-position="0"
    unicode-range="U+0078-F00B7"
  />
<missing-glyph 
 />
    <glyph glyph-name=".notdef" 
 />
    <glyph glyph-name=".null" horiz-adv-x="0" 
 />
    <glyph glyph-name="nonmarkingreturn" horiz-adv-x="341" 
 />
    <glyph glyph-name="x" unicode="x" horiz-adv-x="1001" 
d="M281 543q-27 -1 -53 -1h-83q-18 0 -36.5 -6t-32.5 -18.5t-23 -32t-9 -45.5v-76h912v41q0 16 -0.5 30t-0.5 18q0 13 -5 29t-17 29.5t-31.5 22.5t-49.5 9h-133v-97h-438v97zM955 310v-52q0 -23 0.5 -52t0.5 -58t-10.5 -47.5t-26 -30t-33 -16t-31.5 -4.5q-14 -1 -29.5 -0.5
t-29.5 0.5h-32l-45 128h-439l-44 -128h-29h-34q-20 0 -45 1q-25 0 -41 9.5t-25.5 23t-13.5 29.5t-4 30v167h911zM163 247q-12 0 -21 -8.5t-9 -21.5t9 -21.5t21 -8.5q13 0 22 8.5t9 21.5t-9 21.5t-22 8.5zM316 123q-8 -26 -14 -48q-5 -19 -10.5 -37t-7.5 -25t-3 -15t1 -14.5
t9.5 -10.5t21.5 -4h37h67h81h80h64h36q23 0 34 12t2 38q-5 13 -9.5 30.5t-9.5 34.5q-5 19 -11 39h-368zM336 498v228q0 11 2.5 23t10 21.5t20.5 15.5t34 6h188q31 0 51.5 -14.5t20.5 -52.5v-227h-327z" />
    <glyph glyph-name="jinggao" unicode="&#xf00b7;" horiz-adv-x="1044" 
d="M595 779l21 -35t45 -76t61 -104.5t69.5 -119.5t71 -121t64.5 -110t50 -86t30 -49q15 -26 18.5 -51.5t-3 -46t-23.5 -33.5t-41 -12q-13 0 -53 1t-96 1h-128h-144q-74 0 -146.5 -1t-135.5 -1h-110h-69q-39 0 -60 13.5t-28 34.5t-1.5 45.5t19.5 46.5q7 11 28 46t51 84.5
t65.5 109.5t72.5 122t72 120t62.5 105.5t46.5 77.5l21 36q14 23 37 34.5t48 11.5t48 -10.5t37 -32.5zM569 579q0 12 -5.5 22.5t-14.5 19.5t-21 14t-24 5q-24 0 -44 -18.5t-20 -41.5v-269q0 -23 20 -42t44 -19t44.5 18t20.5 41v270zM504 189q-27 0 -46 -18t-19 -45t19 -46
t46 -19t45 19t18 46t-18 45t-45 18z" />
    <glyph glyph-name="jinggao1" unicode="&#x343b;" horiz-adv-x="1000" 
d="M515 629q-89 0 -164 -44t-119 -119t-44 -164t44 -164.5t119 -119t164 -43.5t164.5 43.5t119 119t43.5 164.5t-43.5 164t-119 119t-164.5 44zM551 120h-72v73h72v-73zM551 229h-72v291h72v-291z" />
    <glyph glyph-name="cuowu" unicode="&#xf0003;" 
d="M491 769q-100 0 -191 -38.5t-156.5 -104.5t-104.5 -157t-39 -190.5t39 -190.5t104.5 -157t156.5 -104.5t191 -38.5t191 38.5t156.5 104.5t104.5 157t39 190.5t-39 190.5t-104.5 157t-156.5 104.5t-191 38.5zM705 131l-66 -67q-5 -5 -12 -5t-12 5l-124 124l-124 -124
q-5 -5 -12 -5t-12 5l-66 67q-5 5 -5 12t5 12l123 123l-123 124q-5 5 -5 12t5 12l66 67q5 5 12 5t12 -5l124 -124l124 124q5 5 12 5t12 -5l66 -67q5 -5 5 -12t-5 -12l-124 -124l124 -123q5 -5 5 -12t-5 -12z" />
    <glyph glyph-name="home" unicode="&#xe7a4;" 
d="M512 769l-469 -469l31 -31l97 97v-438h682v438l97 -97l31 31zM427 -30v299h170v-299h-170zM811 -30h-171v342h-256v-342h-171v438l299 299l299 -299v-438z" />
    <glyph glyph-name="tubiao3" unicode="&#xe6e3;" 
d="M437 359h-353q-8 0 -14 6t-6 14v348q0 8 6 14t14 6h353q9 0 15 -6t6 -14v-348q0 -8 -6 -14t-15 -6zM105 400h312v306h-312v-306zM437 -115h-353q-8 0 -14 6t-6 14v348q0 8 6 14t14 6h353q9 0 15 -6t6 -14v-348q0 -8 -6 -14t-15 -6zM105 -74h312v306h-312v-306zM905 359
h-353q-8 0 -14 6t-6 14v348q0 8 6 14t14 6h353q9 0 15 -6t6 -14v-348q0 -8 -6 -14t-15 -6zM573 400h312v306h-312v-306zM717 -117q-84 0 -144 59.5t-60 144t60 144t144 59.5t144 -59.5t60 -144t-60 -144t-144 -59.5zM716.5 250q-67.5 0 -115 -48t-47.5 -115.5t47.5 -115.5
t115 -48t115.5 48t48 115.5t-48 115.5t-115.5 48zM939 -147q-8 0 -14 5l-90 86q-7 6 -7 14.5t6 14.5t14.5 6.5t14.5 -5.5l91 -86q6 -6 6 -14.5t-6 -14.5t-15 -6z" />
    <glyph glyph-name="zhexiantu" unicode="&#xe67b;" 
d="M514 158v-208q0 -6 4 -10t10 -4h105q6 0 10.5 4t4.5 10v277l-107 -92zM65 -50q0 -6 4 -10t10 -4h105q6 0 10 4t4 10v212l-133 -110v-102zM289 237v-287q0 -6 4.5 -10t9.5 -4h106q6 0 10 4t4 10v285l-67 57zM738 -50q0 -6 4.5 -10t10.5 -4h105q6 0 10 4t4 10v471
l-134 -116v-355zM715 664q-3 0 -4 -3t1 -5l101 -99l-272 -234l-185 157l-292 -241v-104l292 241l185 -157l328 283l83 -82q2 -2 5 -1t3 4v236q0 2 -1.5 3.5t-3.5 1.5h-240z" />
    <glyph glyph-name="jinggao2" unicode="&#xe6d4;" 
d="M512 748q-91 0 -174 -35.5t-143 -95.5t-95.5 -143t-35.5 -174t35.5 -174t95.5 -143t143 -95.5t174 -35.5t174 35.5t143 95.5t95.5 143t35.5 174t-35.5 174t-95.5 143t-143 95.5t-174 35.5zM581 86q0 -10 -6.5 -17t-15.5 -7h-75q-8 0 -14.5 7t-6.5 17v40q0 10 6.5 17
t14.5 7h75q9 0 15.5 -7t6.5 -17v-40zM574.5 217q-6.5 -5 -15.5 -4h-74q-9 0 -15 4.5t-6 11.5l-1 113v178q0 6 6.5 11t14.5 5h75q9 0 15 -5t6 -11v-177l1 -114q0 -7 -6.5 -12z" />
    <glyph glyph-name="fenlei" unicode="&#xe60d;" 
d="M196 586q0 -9 -6.5 -16t-16.5 -7h-86q-9 0 -16 7t-7 16v86q0 10 7 16.5t16 6.5h86q10 0 16.5 -6.5t6.5 -16.5v-86zM959 586q0 -9 -6.5 -16t-16.5 -7h-625q-9 0 -16 7t-7 16v86q0 10 7 16.5t16 6.5h625q10 0 16.5 -6.5t6.5 -16.5v-86zM196 279q0 -9 -6.5 -16t-16.5 -7h-86
q-9 0 -16 7t-7 16v86q0 10 7 16.5t16 6.5h86q10 0 16.5 -6.5t6.5 -16.5v-86zM959 279q0 -9 -6.5 -16t-16.5 -7h-625q-9 0 -16 7t-7 16v86q0 10 7 16.5t16 6.5h625q10 0 16.5 -6.5t6.5 -16.5v-86zM196 -28q0 -9 -6.5 -16t-16.5 -7h-86q-9 0 -16 7t-7 16v86q0 10 7 16.5
t16 6.5h86q10 0 16.5 -6.5t6.5 -16.5v-86zM959 -28q0 -9 -6.5 -16t-16.5 -7h-625q-9 0 -16 7t-7 16v86q0 10 7 16.5t16 6.5h625q10 0 16.5 -6.5t6.5 -16.5v-86z" />
    <glyph glyph-name="tongzhi" unicode="&#xe628;" 
d="M693 502q-5 13 -18 19q-11 6 -22 4q-15 -2 -23.5 -14t-6.5 -27q3 -16 17 -25q55 -58 55 -137q0 -88 -64 -148q-12 -10 -12 -26q0 -14 10 -24t24 -10q15 0 25 10q10 6 15 18q69 77 69 180t-69 180v0zM813 628q-10 19 -31 19q-15 0 -25.5 -10t-10.5 -25q0 -20 17 -30
q97 -101 97 -240q0 -77 -31.5 -145t-87.5 -117v0q-19 -9 -19 -31q0 -14 10 -24t24 -10q18 0 28 14q1 0 1 1v0q67 58 104.5 139t37.5 173q0 81 -30 155t-84 131v0zM443 687l-173 -177h-106q-67 0 -67 -67v-225q0 -32 17 -49.5t50 -17.5h106l173 -177q24 -23 53.5 -25
t50.5 18.5t21 57.5v611q0 37 -21 57.5t-50.5 18.5t-53.5 -25v0zM501 60q0 -13 -2.5 -20t-5.5 -8.5t-9 2.5t-10 7.5t-12 11.5l-7 7q-51 50 -152 158h-94q-26 0 -35.5 10t-9.5 35v135q0 25 10 35t35 10h95q101 109 151 158q3 2 7 7l12 12t10 7.5t9 1.5t5.5 -9t2.5 -21v-539v0z
M501 60z" />
    <glyph glyph-name="youjiantou" unicode="&#xe659;" 
d="M510 407zM744 326q1 3 1 7v1v1q0 4 -1 7l-0.5 0.5l-0.5 0.5q0 1 -1 2q-1 3 -3 5l-363 362q-6 6 -14.5 6.5t-14.5 -4.5l-67 -68q-6 -5 -5.5 -13.5t7.5 -15.5l283 -283l-283 -283q-7 -7 -7.5 -15.5t5.5 -13.5l67 -68q6 -5 14.5 -4.5t14.5 6.5l363 363q2 1 3 4q1 1 1 2
l0.5 0.5z" />
    <glyph glyph-name="jiantou" unicode="&#xe618;" 
d="M544 69l-416 462h768z" />
    <glyph glyph-name="message" unicode="&#xe73b;" 
d="M819 390q0 99 -57 178.5t-148 111.5v18q0 42 -30 72t-72 30t-72 -30t-30 -72v-18q-91 -32 -148 -111.5t-57 -178.5v-204h614v204zM913 -41l-94 124h-614l-93 -124q-10 -13 -10 -29q0 -22 15 -37t37 -15h256q0 -42 30 -72t72 -30t72 30t30 72h256q22 0 37 15t15 37
q0 16 -9 29z" />
    <glyph glyph-name="iconziti55" unicode="&#xe642;" 
d="M512.5 -149q-91.5 0 -174.5 35.5t-143 95.5t-95.5 143t-35.5 174.5t35.5 174.5t95.5 143t143 95.5t174.5 35.5t174.5 -35.5t143 -95.5t95.5 -143t35.5 -174.5t-35.5 -174.5t-95.5 -143t-143 -95.5t-174.5 -35.5zM763 456l-45 45q-6 6 -15 6t-15 -6l-267 -267l-127 128
q-7 6 -15.5 6t-14.5 -6l-45 -45q-6 -6 -6 -14.5t6 -15.5l142 -142v-0.5v-0.5l31 -30l7 -8v0l7 -6q6 -6 14.5 -6t15.5 6l327 327q6 6 6 14.5t-6 14.5z" />
    <glyph glyph-name="jiantouyou" unicode="&#xe62f;" 
d="M341 87l86 -86l298 299l-298 299l-86 -86l214 -213z" />
    <glyph glyph-name="shijian" unicode="&#xe6b8;" 
d="M514.5 789q-97.5 0 -186.5 -39t-153.5 -104t-102.5 -155.5t-38 -190t38 -190t102.5 -155.5t153.5 -104t186.5 -39t186.5 39t153.5 104t102.5 155.5t38 190t-38 190t-102.5 155.5t-153.5 104t-186.5 39zM514.5 -88q-103.5 0 -192 52t-139.5 141.5t-51 195t51 195
t139.5 141.5t192 52t192 -52t139.5 -141.5t51 -195t-51.5 -195t-139.5 -141.5t-191.5 -52zM753 202l-206 126v236q0 10 -7.5 18t-18.5 8h-14q-11 0 -18.5 -8t-7.5 -18v-260q0 -18 17 -24l2 -2l219 -133q9 -6 19 -3.5t16 11.5l7 13q6 9 3.5 19.5t-11.5 16.5z" />
    <glyph glyph-name="denglumima" unicode="&#xe621;" 
d="M764 367v147q0 102 -72 174t-174 72t-174 -72t-72 -174v-147q-34 0 -58 -24t-24 -58v-327q0 -34 24 -58t58 -24h492q34 0 58 24t24 58v327q0 34 -24 58t-58 24zM682 367h-328v147q0 68 48 116t116 48t116 -48t48 -116v-147v0z" />
    <glyph glyph-name="icon4" unicode="&#xe604;" 
d="M512 800q-104 0 -199 -40.5t-163 -109t-108.5 -163t-40.5 -198.5q0 -59 25.5 -128.5t73.5 -136.5t109.5 -123t141.5 -90t161 -34q104 0 199 40.5t163 109t108.5 163t40.5 199t-40.5 199t-108.5 163t-163 109t-199 40.5zM512 -118q-47 0 -80.5 33.5t-33.5 81t33.5 81
t80.5 33.5t80.5 -33.5t33.5 -81t-33.5 -81t-80.5 -33.5zM673 485q-9 -57 -34.5 -130.5t-61 -132.5t-63.5 -63v0v0h-2q-31 -1 -71 70.5t-66.5 158t-26.5 132.5h2q0 68 48 116.5t116 48.5t116.5 -48.5t48.5 -116.5q0 -14 -6 -35z" />
    <glyph glyph-name="cuowu1" unicode="&#xe632;" 
d="M512 748q-185 0 -316.5 -131.5t-131.5 -316.5t131.5 -316.5t316.5 -131.5t316.5 131.5t131.5 316.5t-131.5 316.5t-316.5 131.5zM512 -84q-159 0 -271.5 112.5t-112.5 271.5t112.5 271.5t271.5 112.5t271.5 -112.5t112.5 -271.5t-112.5 -271.5t-271.5 -112.5zM670 504
l-158 -159l-158 159l-46 -46l159 -158l-159 -158l46 -46l158 159l158 -159l46 46l-159 158l159 158z" />
    <glyph glyph-name="home1" unicode="&#xe60f;" 
d="M906 271l-44 -44q-9 -9 -22 -9t-22 9l-306 307l-306 -307q-9 -9 -22 -9t-22 9l-44 44q-9 9 -9 22t9 22l372 372q9 9 22 9t22 -9l372 -372q9 -9 9 -22t-9 -22zM220 183l294 294l294 -294h-2h2v-279h-201v279h-186v-279h-201v279h2h-2z" />
    <glyph glyph-name="cuowu2" unicode="&#xe60c;" 
d="M512 -147q-91 0 -174 35.5t-143 95t-95.5 142.5t-35.5 174t35.5 174t95.5 143t143 95.5t174 35.5t174 -35.5t142.5 -95.5t95 -143t35.5 -174t-35.5 -174t-95 -142.5t-142.5 -95t-174 -35.5zM720 510v0q-16 16 -38.5 16t-37.5 -16l-133 -133l-132 131q-15 16 -37.5 16
t-37.5 -16v0q-16 -16 -16 -38t16 -37l131 -132l-133 -133q-16 -15 -16 -37.5t16 -38.5v0q16 -15 38 -15t38 15l133 133l133 -133q16 -15 38 -15t38 15v0q15 16 15 38t-15 38l-133 133l133 133q15 16 15 38t-15 38z" />
    <glyph glyph-name="weibiaoti1" unicode="&#xe619;" 
d="M98 810v-795h236v-225l173 225l2 -3v3h419v795h-830zM374 163q0 -5 -2.5 -8t-10.5 -7q-11 -4 -13 -4q-6 0 -6 14v5q2 53 2 93v98q-44 -53 -109 -110l-9 4q118 125 194 253h-134q-24 0 -40 -7l-16 22q29 -2 43 -2h155q9 14 36 64l32 -21q5 -3 5 -5.5t-4 -4.5
q-12 -3 -15.5 -6t-9.5 -12q-7 -11 -11 -15h230l26 34l35 -34q6 -6 6 -9.5t-8 -3.5h-297q-45 -67 -81 -113v-133q0 -53 2 -87v-5zM762 311h-163v-132q0 -17 -6 -23.5t-35 -20.5q-1 -1 -3 -1t-3 4q-6 17 -18 24.5t-54 16.5v8q55 -6 68 -6q15 0 19 4t4 13v113h-110
q-24 0 -40 -7l-16 22q29 -2 43 -2h123q0 37 -1 61l29 -16l74 58h-176q-24 0 -40 -7l-16 22q29 -3 43 -3h189l25 18l28 -38q3 -4 3 -5q0 -2 -7 -2q-15 0 -38.5 -10t-84.5 -43v-35h108l23 34l34 -34q7 -7 7 -10t-9 -3zM764 604h-175q0 -4 0.5 -24.5t0.5 -24.5q0 -8 -8.5 -12
t-13.5 -4q-8 0 -8 14q0 4 0.5 25.5t0.5 25.5h-140q0 -4 0.5 -25.5t0.5 -25.5q0 -6 -8 -11t-13 -5q-9 0 -9 14q0 4 0.5 26.5t0.5 26.5h-110q-23 0 -38 -7l-16 21q29 -2 42 -2h122v26q0 23 -2 54l41 -20l6 -3t2 -3t-19 -12v-42h140v21q0 23 -2 54l41 -18q5 -3 5 -5.5
t-16 -11.5v-40h115l27 38l36 -36q6 -7 6 -10q0 -4 -9 -4z" />
    <glyph glyph-name="denglu" unicode="&#xe61a;" 
d="M512 328q81 0 138.5 57.5t57.5 138.5t-57.5 138.5t-138.5 57.5t-138.5 -57.5t-57.5 -138.5t57.5 -138.5t138.5 -57.5zM561 231q-76 0 -152 -13t-141.5 -36.5t-106.5 -62t-41 -84.5v-147h784v147q0 46 -35 85t-88 62t-111 36t-109 13z" />
    <glyph glyph-name="jinggao3" unicode="&#xe646;" 
d="M513 749q-91 0 -174 -35.5t-143 -95.5t-95.5 -142.5t-35.5 -174t35.5 -174t95.5 -142.5t143 -95.5t174 -35.5t173.5 35.5t142.5 95.5t95.5 142.5t35.5 174t-35.5 174t-95.5 142.5t-142.5 95.5t-173.5 35.5v0zM513 -90q-107 0 -197 52.5t-142.5 142.5t-52.5 196.5
t52.5 196.5t142.5 142.5t196.5 52.5t196.5 -52.5t142.5 -142.5t52.5 -196.5t-52.5 -196.5t-142.5 -142.5t-196 -52.5v0zM460 43v124h113v-124h-113v0zM460 206v336h113v-336h-113v0zM460 206z" />
    <glyph glyph-name="tishi" unicode="&#xe63b;" 
d="M512 812q-139 0 -257 -68.5t-186.5 -186.5t-68.5 -257t68.5 -257t186.5 -186.5t257 -68.5t257 68.5t186.5 186.5t68.5 257t-68.5 257t-186.5 186.5t-257 68.5zM512 582q27 0 46 -19t19 -45.5t-19 -45.5t-46 -19t-46 19t-19 45.5t19 45.5t46 19zM567 18h-45
q-18 0 -33.5 12.5t-15.5 26.5v262h-16q-18 0 -30.5 12.5t-12.5 30.5t12.5 30.5t30.5 12.5h54q37 -3 37 -29v-272h19q18 0 30.5 -12.5t12.5 -30.5t-12.5 -30.5t-30.5 -12.5z" />
    <glyph glyph-name="jiazai" unicode="&#xe64d;" 
d="M820 256h-88q-18 0 -31 13t-13 31t13 31t31 13h88q18 0 31 -13t13 -31t-13 -31t-31 -13v0v0zM699 424q-13 -13 -31.5 -13t-31.5 13t-13 31.5t13 31.5l63 62q12 13 30.5 13t31.5 -13t13 -31.5t-13 -30.5l-62 -63v0v0zM512 -52q-18 0 -31 13t-13 31v88q0 18 13 31t31 13
t31 -13t13 -31v-88q0 -18 -13 -31t-31 -13v0v0zM512 476q-18 0 -31 13t-13 31v88q0 18 13 31t31 13t31 -13t13 -31v-88q0 -18 -13 -31t-31 -13v0v0zM325 51q-12 -13 -30.5 -13t-31.5 13t-13 31.5t13 30.5l62 63q13 13 31.5 13t31 -13t13 -31.5t-12.5 -31.5l-63 -62v0v0z
M325 424l-62 63q-13 12 -13 30.5t13 31.5t31.5 13t30.5 -13l63 -62q12 -13 12 -31.5t-12.5 -31.5t-31 -13t-31.5 13v0v0zM336 300q0 -18 -13 -31t-31 -13h-88q-18 0 -31 13t-13 31t13 31t31 13h88q18 0 31 -13t13 -31v0v0zM699 176l62 -63q13 -12 13 -30.5t-13 -31.5
t-31.5 -13t-30.5 13l-63 62q-13 13 -13 31.5t13 31.5t31.5 13t31.5 -13v0v0zM699 176z" />
    <glyph glyph-name="jinlingyingcaiwangtubiao95" unicode="&#xe6fe;" 
d="M542 677q-11 5 -21 -3l-249 -209h-198q-8 0 -13.5 -6t-5.5 -14v-329q0 -8 5.5 -13.5t13.5 -5.5h198l249 -210q6 -4 13 -4q4 0 8 2q11 5 11 17v758q0 12 -11 17zM678 56q-9 0 -15 7q-5 6 -4.5 13.5t6.5 13.5q41 36 63 86t22 105q0 57 -23.5 108t-67.5 88q-6 5 -6.5 13
t4.5 14t13 6.5t14 -4.5q50 -42 77.5 -101t27.5 -124q0 -63 -26 -120.5t-73 -99.5q-5 -5 -12 -5zM783 -34q-11 0 -16 9q-4 7 -2 14.5t9 12.5q73 43 115.5 118t42.5 161t-43 161t-117 119q-7 4 -9 11.5t2 14.5t12 9t15 -2q83 -49 131 -133t48 -180t-48 -180t-130 -132
q-4 -3 -10 -3v0z" />
    <glyph glyph-name="chenggong" unicode="&#xe608;" 
d="M512 675q-102 0 -188.5 -50.5t-137 -137t-50.5 -188.5t50.5 -188.5t137 -137t188.5 -50.5t188.5 50.5t137 137t50.5 188.5t-50.5 188.5t-137 137t-188.5 50.5v0zM512 -23q-87 0 -161.5 43t-117.5 117.5t-43 161.5t43 161.5t117.5 117.5t161.5 43t161.5 -43t117.5 -117.5
t43 -161.5t-43 -161.5t-117.5 -117.5t-161.5 -43v0zM451 216l-107 86l-48 -32l181 -187q5 10 13 26.5t34 63t53.5 87.5t69 89.5t81.5 80.5l-16 21v0q-9 -7 -24.5 -18t-56 -42.5t-73.5 -59.5t-65 -61t-42 -54v0zM451 216z" />
    <glyph glyph-name="yuedu" unicode="&#xe731;" 
d="M959 555q0 8 -6 14q-6 7 -16.5 16.5t-43 30t-68.5 31.5q-45 14 -91 14q-111 0 -222 -79q-113 81 -224 81q-46 0 -91 -15q-35 -11 -67.5 -32t-43 -30.5t-16.5 -16.5q-5 -6 -5 -14v-516l56 -68q6 -15 21 -14q6 -1 11 2q109 27 188 27q53 0 76 -14q10 -6 12 -16
q0 -8 6.5 -14.5t15.5 -6.5h21q50 0 92 2v0h5q18 0 22 17q3 13 17 21q23 14 73 14q79 0 187 -30q5 -3 10 -2h1q14 0 20 13l60 68v516v1zM915 545v-466q-74 28 -144 41q-52 9 -97 9q-86 0 -140 -34v449q101 73 200 73q40 0 77 -11q60 -19 104 -61zM350 81q101 0 146 -49v0
l2 -2l1 -1q1 -1 2 -1l1 -1l2 -1h2l1 -1h2h1h2h1h3h1q2 1 3 1l1 1q1 0 1.5 0.5t1 0.5t1.5 1l1 1v0l3 2v1q44 52 143.5 52t227.5 -47l-30 -34q-51 13 -100 21q-50 8 -89 8q-61 0 -95 -20q-22 -12 -32 -32q-38 -2 -82 -2h-4q-9 18 -28 30q-33 21 -100 21q-80 0 -189 -26l-28 33
q127 44 227 44zM349 125q-45 0 -97 -9q-70 -12 -143 -38v468q43 42 102 61q37 12 77 12q99 0 202 -75v-452q-55 33 -141 33z" />
    <glyph glyph-name="yanzhengma" unicode="&#xe669;" 
d="M792 747h-252v-227q66 -16 112 -66.5t56 -118.5q4 -17 4 -35q0 -79 -48.5 -140t-123.5 -80v-227h252q69 0 118 49t49 118v560q0 69 -49 118t-118 49zM621 300q0 57 -40 97t-97 40v310h-252q-69 0 -118 -49t-49 -118v-560q0 -69 49 -118t118 -49h252v310q57 0 97 40t40 97
z" />
    <glyph glyph-name="tuijian" unicode="&#xe61f;" 
d="M261 -51h-75h-1q-16 0 -28.5 13.5t-16.5 33.5l-34 375q0 22 15.5 40.5t37.5 18.5v0l129 -1q2 0 4 0.5t3 0.5v-459q-10 -7 -16 -11q-13 -10 -18 -11v0zM866 187h-5v-33q19 -7 19 -35q0 -22 -23 -33t-53 -11h1l-1 -32q19 -4 19 -35q0 -59 -100 -59h-286q-25 0 -57 16
q-10 5 -47 26v445q48 13 89.5 48t55.5 62q25 57 25 164q0 29 8.5 39t24.5 10q11 0 26 -10.5t24 -24.5q28 -44 29.5 -119.5t-29.5 -144.5l-8 -31h253q35 -2 60.5 -15.5t25.5 -35.5v-10q0 -2 -0.5 -8t-4.5 -16t-10 -16q-6 -4 -11.5 -6.5t-7.5 -3.5h-3l-1 -33q15 -2 23 -7
q17 -12 16 -39q-1 -16 -19.5 -34t-32.5 -18v0z" />
    <glyph glyph-name="jiazai1" unicode="&#xe620;" 
d="M397 654zM240 654q0 65 46 111t111 46t111 -46t46 -111t-46 -111t-111 -46t-111 46t-46 111zM151 351zM19 350.5q0 54.5 38.5 93.5t93.5 39t93.5 -39t38.5 -93.5t-38.5 -93t-93.5 -38.5t-93.5 38.5t-38.5 93zM258 12zM139 11.5q0 49.5 35 84.5t84 35t84 -35t35 -84.5
t-35 -84t-84 -34.5t-84 34.5t-35 84zM561 -108zM459 -108.5q0 42.5 30 72.5t72.5 30t72.5 -30t30 -72.5t-30 -72.5t-72.5 -30t-72.5 30t-30 72.5zM816 12zM728 12.5q0 36.5 26 62.5t62.5 26t62.5 -26t26 -62.5t-26 -62.5t-62.5 -26t-62.5 26t-26 62.5zM929 237zM853 236.5
q0 31.5 22 54t53.5 22.5t54 -22.5t22.5 -54t-22.5 -53.5t-54 -22t-53.5 22t-22 53.5zM900 448zM844 447.5q0 23.5 16.5 40.5t40 17t40 -17t16.5 -40.5t-16.5 -40t-40 -16.5t-40 16.5t-16.5 40zM774 599zM731 599.5q0 17.5 12.5 30t30 12.5t30 -12.5t12.5 -30t-12.5 -30
t-30 -12.5t-30 12.5t-12.5 30z" />
    <glyph glyph-name="jiantouyou1" unicode="&#xe654;" 
d="M414 556l-60 -60l197 -196l-197 -197l60 -59l256 256z" />
    <glyph glyph-name="home2" unicode="&#xe626;" 
d="M578 504l-22 19v0l-44 39l-54 -48l-331 -289v-178v-155q0 -34 24.5 -58.5t59.5 -24.5h184v267q0 21 14.5 35.5t35.5 14.5h134q20 0 35 -14.5t15 -35.5v-267h184q34 0 58.5 24.5t24.5 58.5v156v177l-317 278zM991 394l-95 82v182q0 27 -19.5 46.5t-47 19.5t-47.5 -19.5
t-20 -46.5v-64l-206 180q-19 17 -44 17t-44 -17l-435 -380q-20 -18 -22 -45.5t16.5 -48.5t46 -22.5t48.5 16.5l390 342l390 -342q19 -17 44 -17q31 0 51 23q18 21 16 48.5t-22 45.5z" />
    <glyph glyph-name="dengluhou" unicode="&#xe6ea;" 
d="M624 242q76 33 122.5 102.5t46.5 154.5q0 116 -81.5 198t-197.5 82t-198 -82t-82 -198q0 -85 46.5 -154.5t122.5 -102.5q-140 -37 -230 -152.5t-90 -263.5h862q0 148 -90.5 263.5t-230.5 152.5z" />
    <glyph glyph-name="tishi1" unicode="&#xe648;" 
d="M512 812q-104 0 -199 -40.5t-163.5 -109t-109 -163.5t-40.5 -199t40.5 -199t109 -163.5t163.5 -109t199 -40.5t199 40.5t163.5 109t109 163.5t40.5 199t-40.5 199t-109 163.5t-163.5 109t-199 40.5v0zM592 112q-33 -51 -65.5 -77t-78.5 -26q-33 5 -47 26t-7 47l85 281
q4 13 -7 17q-10 3 -30 -18l-51 -62v35q29 43 71 73.5t74 30.5q30 -3 44.5 -24t8.5 -49l-85 -283q-2 -12 8 -15q10 -4 30 17l51 62q1 -6 0 -20.5l-1 -14.5v0zM581 480q-25 0 -42 16t-17 42t17 42.5t42 16.5t42 -16.5t17 -42.5t-17 -42t-42 -16v0zM581 480z" />
    <glyph glyph-name="shijian1" unicode="&#xe60a;" 
d="M512 896q-138 0 -256 -69t-187 -187t-69 -256t69 -256t187 -187t256 -69t256 69t187 187t69 256t-69 256t-187 187t-256 69zM512 -56q-119 0 -220 58t-160.5 159.5t-59.5 222.5t59.5 222.5t160.5 159.5t220 58t220 -58t160.5 -159.5t59.5 -222.5t-59.5 -222.5
t-160.5 -159.5t-220 -58zM558 415l-46 322l-51 -363v0q0 -23 14 -37t37 -14v0l364 51z" />
    <glyph glyph-name="password" unicode="&#xe66c;" 
d="M854 546h-91q0 110 -74 184.5t-181.5 74.5t-181 -74.5t-73.5 -184.5h-91q0 88 46 168.5t126.5 131t173 50.5t173.5 -50.5t127 -131t46 -168.5v0zM908 396q0 38 -27 65t-65 27h-608q-38 0 -65 -27t-27 -65v-433q0 -38 27 -64.5t65 -26.5h609q37 0 64 26.5t27 64.5v433z
M585 58q0 -29 -20 -49t-48 -20h-10q-28 0 -48 20t-20 49v185q0 29 20 49t48 20h10q28 0 48 -20t20 -49v-185v0zM585 58z" />
    <glyph glyph-name="yuedu1" unicode="&#xe806;" 
d="M880 776h-390l-232 108q-20 9 -40 9q-40 0 -67.5 -27.5t-27.5 -67.5v-24q-53 -8 -88 -48t-35 -94v-613q0 -60 42 -102t102 -42h368h368q60 0 102 42t42 102v613q0 59 -42 101.5t-102 42.5zM165 798q0 23 16.5 38t36.5 15q11 0 22 -5l251 -117v-775l-295 138
q-31 14 -31 47v659zM43 19v613q0 36 22.5 63.5t57.5 35.5v-592q0 -28 14.5 -51t39.5 -35l291 -136h-324q-42 0 -71.5 30t-29.5 72zM981 19q0 -42 -29.5 -72t-71.5 -30h-347v3v813h347q42 0 71.5 -29.5t29.5 -71.5v-613z" />
    <glyph glyph-name="tongzhi-copy" unicode="&#xe600;" 
d="M905 94l-75 132v277q0 89 -59 171q-60 84 -153 119h-1q-6 2 -14 4v9q0 38 -27 64.5t-64 26.5t-64 -26.5t-27 -64.5v-8q-7 -2 -12 -4v0q-95 -34 -156 -118q-60 -83 -60 -173v-277l-81 -142q-16 -27 0 -54.5t48 -27.5h199q9 -56 52 -93.5t101 -37.5t101 37.5t52 93.5h199
q23 0 39 16t16 39q0 21 -14 37zM512 850q17 0 29.5 -12t13.5 -29q-8 1 -14 2q-4 1 -7 0q-1 0 -2 1q-13 2 -20.5 2t-20.5 -2q-1 0 -1.5 -0.5l-0.5 -0.5q-4 1 -7 0q-6 -1 -13 -2q1 17 13.5 29t29.5 12zM512 -82q-38 0 -67.5 24t-37.5 60h210q-8 -36 -37.5 -60t-67.5 -24z
M864 49h-704q-5 0 -7 4t0 8l84 147q3 6 3 12v283q0 77 53 147.5t131 98.5q30 10 58 14h5q4 1 11 2q9 1 13 1t14 -1q6 -1 10 -2h5q29 -4 62 -15q77 -29 129 -99t52 -146v-283q0 -6 3 -12l79 -140q2 -3 5 -6q2 -2 2 -5q0 -8 -8 -8v0z" />
    <glyph glyph-name="denglu1" unicode="&#xe601;" horiz-adv-x="1041" 
d="M48 191.5q39 -93.5 110.5 -165t165 -110.5t195 -39t195 39t165 110.5t110.5 165t39 195t-39 195t-110.5 165t-165 110.5t-195 39t-195 -39t-165 -110.5t-110.5 -165t-39 -195t39 -195zM630 342h-336q-7 0 -11.5 5t-4.5 12v67q0 7 4.5 12t11.5 5h336v67q0 14 7 17t17 -7
q127 -127 127 -128l-127 -127q-10 -10 -17 -7t-7 17v67z" />
    <glyph glyph-name="signin" unicode="&#xe607;" horiz-adv-x="1025" 
d="M677 384q0 -15 -11 -26l-311 -311q-11 -10 -26 -10t-25.5 10.5t-10.5 25.5v165h-256q-15 0 -26 10.5t-11 25.5v220q0 15 11 25.5t26 10.5h256v165q0 15 10.5 25.5t25.5 10.5t26 -10l311 -311q11 -11 11 -26zM878 585v-402q0 -68 -48.5 -116.5t-116.5 -48.5h-183
q-7 0 -12.5 5.5t-5.5 13.5q0 2 -0.5 11t-0.5 15t1.5 13.5t6 11t11.5 3.5h183q38 0 65 27t27 65v402q0 38 -27 65t-65 27h-178h-7l-6 2l-5 3l-4 5l-1 8q0 2 -0.5 11t-0.5 15t1.5 13.5t6 11.5t11.5 4h183q68 0 116.5 -48.5t48.5 -116.5z" />
    <glyph glyph-name="home3" unicode="&#xe63a;" 
d="M1015 407q-320 320 -321 320l-159 160q-9 9 -22.5 9t-22.5 -9l-138 -151v64q0 13 -9.5 22.5t-22.5 9.5h-128q-13 0 -22.5 -9.5t-9.5 -22.5v-256l-151 -160q-9 -10 -9 -22.5t9.5 -22t21.5 -10.5t22 8l43 47v-448q0 -27 19 -45.5t45 -18.5h704q27 0 45.5 18.5t18.5 45.5
v467l42 -42q10 -9 22.5 -8.5t22 10t9.5 22t-9 22.5zM288 768v-96l-64 -64v160h64zM576 -64h-128v256h128v-256zM864 -32q0 -13 -9.5 -22.5t-22.5 -9.5h-192v288q0 13 -9.5 22.5t-22.5 9.5h-192q-13 0 -22.5 -9.5t-9.5 -22.5v-288h-192q-13 0 -22.5 9.5t-9.5 22.5v480
l352 371l352 -352v-499z" />
    <glyph glyph-name="putongdengludenglumimaicon01" unicode="&#xe6dd;" 
d="M766 421v228q-5 15 -13 33t-27.5 45t-44.5 48.5t-66 38t-90 19.5q-48 2 -91.5 -17t-68.5 -43.5t-46.5 -57t-27 -45.5t-8.5 -21v0v-228h-88v-440h661v440h-90zM456 71l48 154q-11 5 -19 12q-19 18 -19 43q0 24 17 41.5t41.5 17.5t42 -17.5t17.5 -41.5q0 -37 -34 -53
l47 -156h-141v0zM678 421h-305v217q0 5 2 12.5t12 26.5t25 33.5t45 26.5t69 12t68.5 -11.5t44.5 -28t24.5 -33.5t11.5 -28l3 -12v-215v0z" />
    <glyph glyph-name="xiaolvdashiicon02-copy-copy" unicode="&#xe60e;" 
d="M804 490h-2q-23 0 -44 -13q-9 26 -30 42t-49 16q-25 0 -46 -13q-9 26 -30 42t-49 16q-21 0 -41 -10v86q0 36 -24 61t-59 25q-36 0 -61 -25t-25 -61v-332l-53 52q-26 24 -62.5 23t-59.5 -23q-15 -15 -23.5 -36.5t-5 -46.5t22.5 -45l241 -239q7 -7 16 -13q36 -29 80.5 -43
t120.5 -14q51 0 91 8.5t68 21.5t47.5 35t31 45t18 55t8.5 61t2 68v171q0 36 -24 61t-59 25v0zM841 233q0 -39 -0.5 -58t-4.5 -50.5t-12 -47.5t-24 -37t-39.5 -31t-58.5 -17t-81 -7q-69 0 -114 15t-77 47l-229 227q-14 16 -12.5 32.5t14.5 30.5q12 12 31.5 12.5t31.5 -11.5
l74 -74l49 -49v432q0 17 12 29t29 12t27.5 -12t10.5 -29v-275h1q-1 -2 -1 -4q0 -10 6.5 -16.5t16 -6.5t16.5 6.5t7 16.5q0 2 -1 4h1v113q0 17 11 29t27 12q2 0 4.5 -0.5t9.5 -2.5t12.5 -6t9.5 -12t4 -20v-149h1q-1 -2 -1 -4q0 -10 7 -16.5t16.5 -6.5t16 6.5t6.5 16.5
q0 2 -1 4h1v104q0 17 11 29t28 12q1 -1 4 -1t10 -2.5t12.5 -6.5t9.5 -12t4 -19v-131h1q-1 -2 -1 -4q0 -10 7 -16.5t16 -6.5t15.5 6.5t6.5 16.5v4v0v89q0 17 11.5 29t28.5 12h4t9.5 -2t12 -6t9.5 -12.5t4 -20.5v-165v0zM310 529v75q-11 26 -11 53q0 54 38 92t92 38t92 -38
t38 -92q0 -14 -3 -28q24 -1 41 -19q7 24 7 47q0 73 -51.5 124t-124 51t-123.5 -51t-51 -124q-1 -76 56 -128v0zM310 529z" />
    <glyph glyph-name="jiazai2" unicode="&#xe609;" 
d="M461 896h77v-256h-77v256zM847 768l49 -49l-181 -181l-49 49zM768 410h256v-77h-256v77zM666 181l49 49l181 -181l-49 -49zM461 128h77v-256h-77v256zM283 230l50 -49l-181 -181l-50 49zM0 410h256v-77h-256v77zM102 719l50 49l181 -181l-50 -49z" />
    <glyph glyph-name="tixing" unicode="&#xe752;" 
d="M660 24q7 0 -3 -15.5t-30 -34t-47 -34t-58 -15.5q-27 0 -53 15.5t-45.5 34t-29.5 34t-6 15.5h272zM914 111q8 -10 7.5 -18.5t-5 -14.5t-10.5 -9.5t-12 -3.5h-748q-14 0 -20.5 11.5t4.5 28.5q17 31 41 69t45 81.5t36 92t15 102.5q0 51 14.5 92t37.5 71.5t53 52t63 32.5
q-16 27 -16 56q0 42 28.5 70.5t70.5 28.5t70.5 -28.5t28.5 -70.5q0 -15 -4 -28.5t-11 -25.5q35 -11 66 -32.5t54 -53t37 -72.5t14 -91q0 -52 15.5 -101.5t37 -94t45.5 -81.5t43 -63zM478 754q0 -17 11.5 -28.5t27.5 -11.5h2q17 1 28 12t11 28t-11 28.5t-28.5 11.5t-29 -11.5
t-11.5 -28.5z" />
    <glyph glyph-name="yanzhengma1" unicode="&#xe614;" 
d="M874 769h-26q-65 0 -123 11t-93.5 24.5t-64.5 30.5t-38.5 25t-12.5 12l-23 24l-23 -24q-3 -3 -12.5 -11.5t-38 -25.5t-64 -30.5t-94 -24.5t-122.5 -11h-27l-32 1v-461q0 -43 6.5 -79.5t31 -86t66.5 -92t118 -89.5t180 -86l11 -4l11 4q104 39 180.5 86t118 89.5t66 92
t31.5 86t7 79.5v461l-33 -1v0zM458 189l-208 190l55 46l111 -84q6 6 17 17.5t45.5 43.5t68 60.5t80.5 62t88 54.5l21 -24v0q-7 -7 -20 -19t-50 -50t-70 -78.5t-72.5 -100.5t-65.5 -118v0zM458 189z" />
    <glyph glyph-name="shujushangchuan" unicode="&#xe667;" 
d="M851 337v-325q0 -11 -7 -18t-17 -7h-630q-10 0 -17 7t-7 18v325h1h-1q0 7 4 13l109 185q6 12 20 12h53h66h24v-49h-24h-66h-40l-95 -161h159q18 0 24 -25l11 -45q3 -9 11 -16t17 -7h132q9 0 17 7t11 16l11 45q6 25 24 25h159l-94 161h-131v49h144q14 0 20 -12l108 -185
q4 -6 4 -13h-1h1v0zM349 589q11 -11 33.5 -9.5t34.5 12.5l63 63v-272q0 -31 31.5 -31t31.5 31v272l60 -66q11 -11 27 -11t27 11.5t11 27t-11 27.5l-121 120q-12 17 -33 17q-20 0 -32 -17l-122 -120q-11 -12 -11 -27.5t11 -27.5z" />
    <glyph glyph-name="tongji-copy" unicode="&#xe602;" 
d="M101 401q0 -102 50 -188.5t135.5 -136.5t187 -50t187 50t135.5 136.5t50 188.5h-373v375q-101 0 -186.5 -50t-135.5 -136.5t-50 -188.5zM920 476q0 102 -49.5 188.5t-135.5 136.5t-187 50v-375h372z" />
    <glyph glyph-name="neiyetiaozhuan" unicode="&#xe6db;" 
d="M640 64q0 -29 -17.5 -46.5t-46.5 -17.5h-384q-29 0 -46.5 17.5t-17.5 46.5v384q0 29 17.5 46.5t46.5 17.5h179l128 128h-435q-24 0 -44 -20t-20 -44v-640q0 -24 20 -44t44 -20h640q24 0 44 20t20 44v435l-128 -128v-179zM954 794q0 3 -3.5 6t-3.5 6q0 7 -6 7l-7 6
q-3 0 -6 3.5t-6 3.5q-7 6 -26 6h-384q-29 0 -46.5 -17.5t-17.5 -46.5t17.5 -46.5t46.5 -17.5h230l-467 -467q-19 -19 -19 -45t19 -45t45 -19t45 19l467 467v-230q0 -29 17.5 -46.5t46.5 -17.5t46.5 17.5t17.5 46.5v384q0 19 -6 26z" />
    <glyph glyph-name="tiezi-tongzhi-copy" unicode="&#xe603;" 
d="M338 469q31 -23 60 -47t43 -38t30.5 -26t22 -16.5t18.5 -4.5t19 5t23.5 18t33 27.5t46.5 40t64 50.5q101 77 273 216q-39 44 -95 44h-727q-56 0 -94 -42q171 -141 283 -227v0v0zM727 406q-61 -46 -132 -109q-25 -22 -35 -31t-26 -17t-21.5 -8t-21.5 8t-26 17t-36 31
q-71 63 -132 109q-275 210 -278 212q-3 -13 -3 -22v-425q0 -58 39 -99.5t94 -41.5h727q55 0 93.5 41.5t38.5 99.5v425q0 8 -2 22q-28 -20 -279 -212v0v0z" />
    <glyph glyph-name="tixing1" unicode="&#xe63d;" 
d="M512 -64q-91 0 -174 35.5t-143 95.5t-95.5 143t-35.5 174t35.5 174t95.5 143t143 95.5t174 35.5t174 -35.5t143 -95.5t95.5 -143t35.5 -174t-35.5 -174t-95.5 -143t-143 -95.5t-174 -35.5v0zM581 586q0 28 -19.5 47.5t-47.5 19.5t-47.5 -19.5t-19.5 -47.5v-224
q0 -28 19.5 -48t47.5 -20t47.5 20t19.5 48v224v0zM581 205q0 18 -13 31.5t-32 13.5h-44q-19 0 -32 -13.5t-13 -31.5v-45q0 -19 13 -32t32 -13h44q19 0 32 13t13 32v45v0z" />
    <glyph glyph-name="tixing2" unicode="&#xe6b5;" 
d="M512 896q-139 0 -257 -68.5t-186.5 -186.5t-68.5 -257t68.5 -257t186.5 -186.5t257 -68.5t257 68.5t186.5 186.5t68.5 257t-68.5 257t-186.5 186.5t-257 68.5zM512 667q22 0 37.5 -15.5t15.5 -37.5t-15.5 -37.5t-37.5 -15.5t-37.5 15.5t-15.5 37.5t15.5 37.5t37.5 15.5z
M547 102q0 -15 -10 -25.5t-25 -10.5t-25 10.5t-10 25.5v353q0 14 10 24.5t25 10.5t25 -10.5t10 -24.5v-353z" />
    <glyph glyph-name="tongzhi1" unicode="&#xe729;" 
d="M819 30h-616q-57 0 -97.5 40.5t-40.5 97.5v429q0 57 40.5 97.5t97.5 40.5h616q57 0 97.5 -40.5t40.5 -97.5v-428q0 -58 -40.5 -98t-97.5 -41zM203 688q-38 0 -64.5 -26.5t-26.5 -64.5v-428q0 -38 26.5 -64.5t64.5 -26.5h616q38 0 64.5 26.5t26.5 64.5v428
q0 38 -26.5 64.5t-64.5 26.5h-616zM511 318q-17 0 -32 9l-402 223q-8 5 -11 14t2 17.5t14 11.5t18 -2l402 -223q9 -5 18 0l402 223q9 5 18 2t14 -11.5t2 -17.5t-11 -14l-402 -223q-15 -9 -32 -9z" />
    <glyph glyph-name="dianji" unicode="&#xe637;" 
d="M958 229l-475 283q-13 8 -20.5 3t-4.5 -20l101 -547q3 -15 11 -17t17 11q64 92 117 149l102 -151q7 -11 20 -13.5t23 4.5l34 24q11 7 13.5 20t-4.5 24l-102 151q30 13 71 25.5t67 19.5l26 7q15 4 16 12t-12 15zM403 51q-2 1 -5 1q-124 29 -203.5 131t-77.5 232
q1 100 50.5 184t133.5 132.5t183 47.5q141 -2 244 -100.5t114 -239.5v-1v0v-5q3 -19 21 -25q4 -1 6 -2h1h3h2q12 1 20.5 10t8.5 22v0v4q-5 69 -30 132q-32 78 -90 138.5t-134 93.5q-79 35 -165.5 36t-166.5 -32q-76 -32 -135.5 -91t-93.5 -136q-34 -80 -35 -168
q-1 -79 26 -153t78 -134q91 -107 226 -138q3 -1 6 -1q2 -1 3 -1q13 0 22.5 9.5t9.5 22.5q0 23 -22 31z" />
    <glyph glyph-name="shujushangchuan1" unicode="&#xe615;" 
d="M960 5q0 -21 -15 -36.5t-37 -15.5h-792q-22 0 -37 15.5t-15 36.5v172q0 22 15 37t37 15h230q11 -30 37.5 -49.5t59.5 -19.5h138q33 0 59.5 19.5t37.5 49.5h230q22 0 37 -15t15 -37v-172zM753 505h-138v-242q0 -14 -10 -24t-24 -10h-138q-14 0 -24 10t-10 24v242h-138
q-23 0 -32 21t7 37l242 241q9 11 24 11t24 -11l241 -241q17 -16 8 -37t-32 -21zM719 91q-14 0 -24.5 -10t-10.5 -24.5t10.5 -24.5t24.5 -10t24 10t10 24.5t-10 24.5t-24 10zM856.5 91q-14.5 0 -24.5 -10t-10 -24.5t10 -24.5t24.5 -10t24.5 10t10 24.5t-10 24.5t-24.5 10z
" />
    <glyph glyph-name="denglu2" unicode="&#xe678;" 
d="M504 623zM248 623q0 106 75 181t181 75t181 -75t75 -181t-75 -181t-181 -75t-181 75t-75 181zM642 308h-276q-119 0 -203.5 -84.5t-84.5 -203.5v-18q0 -2 0.5 -5t0.5 -5q0 -4 1.5 -7t10.5 -16q5 -7 13 -15q13 -14 30.5 -24t36.5 -15q17 -4 36 -4h604q15 0 28 3q13 2 26 8
q13 5 25 12q11 8 21 17q14 14 17 32q1 11 1 17q1 9 1 20q0 119 -84.5 203.5t-203.5 84.5z" />
    <glyph glyph-name="icon_checkcirclechanpinhegeshuai" unicode="&#xe60b;" horiz-adv-x="1030" 
d="M514.5 896q-104.5 0 -199 -40.5t-163 -109t-109.5 -163.5t-41 -199t41 -199t109.5 -163.5t163 -109t199 -40.5t199 40.5t163 109t109.5 163.5t41 199t-41 199t-109.5 163.5t-163 109t-199 40.5zM459 189l-260 260l18 19l242 -168l353 279l18 -19z" />
    <glyph glyph-name="dianji1" unicode="&#xe83e;" 
d="M836 549h-2q-26 0 -49 -14q-10 29 -33.5 47t-54.5 18q-28 0 -52 -15q-10 29 -33.5 47t-54.5 18q-24 0 -46 -11v97q0 40 -26.5 68t-66.5 28t-68.5 -28t-28.5 -68v-372l-58 58q-29 28 -70.5 26.5t-66.5 -26.5q-17 -17 -26.5 -40.5t-6 -52t25.5 -49.5l270 -268q8 -8 18 -14
q40 -33 90 -48.5t134 -15.5q58 0 102.5 9t75.5 24t53.5 39.5t35 50t19.5 61.5t9.5 68t2.5 76v192q0 40 -26.5 67.5t-66.5 27.5zM878 262q0 -43 -1 -64.5t-5.5 -56.5t-13.5 -53t-26.5 -41.5t-43.5 -34.5t-65.5 -19t-91.5 -8q-76 0 -126.5 17t-87.5 53l-255 253
q-16 18 -14.5 36.5t16.5 33.5q14 14 35.5 14.5t34.5 -12.5l83 -83q28 -27 55 -55v484q0 19 13.5 32t32.5 13t31 -13t12 -32v-308v0v-5q0 -10 7 -17.5t17.5 -7.5t18 7.5t7.5 17.5v5v0v126q0 19 12.5 32.5t31.5 13.5q2 0 5 -0.5t10.5 -2.5t13.5 -6.5t11 -14t5 -22.5v-166v0v-5
q0 -11 7.5 -18t18 -7t17.5 7t7 18v5v0v116q0 19 12.5 32t31.5 13q2 0 5 -0.5t10.5 -3t13.5 -7t11 -13.5t5 -21v-146h1q-1 -3 -1 -5q0 -11 7.5 -18.5t18 -7.5t18 7.5t7.5 18.5q0 2 -1 5h1v100q0 19 12.5 32t31.5 13h4t11 -2.5t13.5 -6.5t10.5 -13.5t5 -22.5v-186v0zM284 593z
" />
    <glyph glyph-name="shuangren" unicode="&#xe671;" 
d="M717 101l-176 97q43 36 63 96q20 61 20 114v118q2 37 -29 76t-81 65t-99 24q-77 0 -144 -53t-67 -112v-118q0 -51 22 -111q23 -63 67 -98l-181 -98l-13 -7q-11 -6 -23 -18t-12 -22v-71q0 -20 14 -33.5t34 -13.5h605q19 0 33 13.5t14 33.5v71q0 14 -16.5 27.5t-28.5 17.5z
M708 -8h-588v50q6 4 14 8l4 1l181 99q11 5 20 18t9 26q2 29 -20 49q-33 25 -50.5 75t-17.5 90v118q0 32 49 71q51 38 106 38q58 0 105 -37q48 -38 48 -72v-118q0 -42 -15 -92q-14 -48 -47 -73q-24 -20 -21 -49q3 -30 29 -45l175 -97l6 -2q6 -3 13 -8v-50zM912 240l-178 98
q43 35 64.5 96t21.5 113v118q0 59 -67 113t-145 54q-48 0 -96.5 -23.5t-80.5 -61.5q42 0 71 -8q47 36 106 36q58 0 107 -38.5t49 -71.5v-118q0 -42 -17 -91q-16 -50 -48 -74q-24 -19 -21 -49q0 -25 29 -45l178 -97l19 -9v-50h-113q9 -7 14.5 -16.5t7.5 -15.5t7 -24h92
q21 0 34.5 13.5t13.5 33.5v70q0 12 -11 23.5t-25 18.5z" />
    <glyph glyph-name="zhexiantu1" unicode="&#xe635;" 
d="M0 896h64v-1024h-64v1024zM0 -64h1024v-64h-1024v64zM340 394l53 37l147 -210l-53 -37zM33 257l323 226l37 -52l-359 -251zM451 237l471 330l37 -52l-472 -331z" />
    <glyph glyph-name="jinggao4" unicode="&#xe616;" 
d="M509.5 269q27.5 0 47.5 19.5t20 47.5v312q0 27 -20 46.5t-47.5 19.5t-47 -19.5t-19.5 -46.5v-312q0 -28 19.5 -47.5t47 -19.5zM512 209q-32 0 -55 -23t-23 -55t23 -54.5t55 -22.5t55 22.5t23 54.5t-23 55t-55 23zM512 896q139 0 257 -68.5t186.5 -186.5t68.5 -257
t-68.5 -257t-186.5 -186.5t-257 -68.5t-257 68.5t-186.5 186.5t-68.5 257t68.5 257t186.5 186.5t257 68.5v0z" />
    <glyph glyph-name="denglumima1" unicode="&#xe622;" 
d="M793 499v56q0 116 -82 198t-198 82t-198 -82t-82 -198v-56q-47 0 -79.5 -33t-32.5 -79v-225q0 -92 65.5 -158t158.5 -66h336q93 0 158.5 66t65.5 158v225q0 46 -32.5 79t-79.5 33zM512.5 139q-40.5 0 -69 29t-28.5 69.5t28.5 69t69 28.5t69.5 -28.5t29 -69t-29 -69.5
t-69.5 -29zM671 499h-316q-10 29 -10 56q0 69 49 118.5t119 49.5t119 -49.5t49 -118.5q0 -27 -10 -56z" />
    <glyph glyph-name="zhexiantu2" unicode="&#xe61b;" horiz-adv-x="1239" 
d="M1209 43h-1046v181q34 -31 69 -31q38 0 65.5 27.5t27.5 65.5q0 11 -4 25l182 195q20 -13 47 -13q13 0 18 2l133 -122q-2 -7 -2 -18q0 -38 27.5 -65.5t66 -27.5t66 27.5t27.5 65.5q0 11 -4 29l151 156q15 -9 40 -9q39 0 66 28t27 68q0 38 -27.5 65.5t-67.5 27.5t-67 -27.5
t-27 -65.5q0 -9 2 -14l-155 -169q-18 5 -27 5q-19 0 -36 -7l-120 111q7 17 7 36q0 38 -27.5 65.5t-66 27.5t-66 -27.5t-27.5 -65.5l-198 -212q-18 5 -29 5q-35 0 -69 -31v449h-89v-846h1135v89h-2z" />
    <glyph glyph-name="jiazai3" unicode="&#xe6bd;" 
d="M1020 158q-7 16 -23.5 22t-32.5 -1l-38 -17q55 111 55 218q0 96 -37 183t-99.5 149.5t-149.5 99.5t-183 37q-102 0 -192 -38q-16 -7 -22 -23.5t1 -32.5q6 -16 22.5 -22t32.5 1q82 34 158 34q160 0 272 -112t112 -272q0 -103 -55 -201l-22 52q-6 15 -22.5 21.5t-32.5 -0.5
q-16 -6 -22 -23t0 -32l60 -141q8 -16 26 -22q1 0 6.5 -2t10.5 -2q13 0 17 4l141 64q13 7 18 23.5t-1 32.5zM670 34q-82 -34 -158 -34q-105 0 -193.5 51t-139.5 139.5t-51 193.5q0 103 55 201l22 -52q6 -15 22.5 -21.5t32.5 0.5q16 6 22 23t0 32l-60 137q-6 18 -21 26
q-2 0 -7.5 2t-10.5 2q-12 0 -17 -4l-140 -64q-16 -7 -22 -23.5t0 -32.5q7 -16 23.5 -22t32.5 1l38 17q-55 -111 -55 -222q0 -96 37 -183t99.5 -149.5t149.5 -99.5t183 -37q102 0 192 38q16 6 22 23t-1 33q-6 18 -22 25t-33 0z" />
    <glyph glyph-name="shujushangchuan2" unicode="&#xe610;" 
d="M896 320v-320h-768v320h-128v-448h1024v448h-128zM384 256h256v320h237l-359 320l-358 -320h224v-320z" />
    <glyph glyph-name="jiantou1-up" unicode="&#xe506;" 
d="M480 615l416 -462h-768z" />
    <glyph glyph-name="denglu3" unicode="&#xe611;" 
d="M853 -4h-49q-1 120 -86.5 204.5t-205.5 84.5t-205.5 -84.5t-86.5 -204.5h-49q1 108 64 195.5t162 122.5q-58 32 -93.5 89.5t-35.5 126.5q0 101 71.5 172.5t172.5 71.5t172.5 -71.5t71.5 -172.5q0 -69 -35.5 -126.5t-93.5 -89.5q99 -35 162 -122.5t64 -195.5zM707 530
q0 81 -57 138t-138 57t-138 -57t-57 -138t57 -138.5t138 -57.5t138 57.5t57 138.5z" />
    <glyph glyph-name="tiaozhuan" unicode="&#xe652;" 
d="M512 732q-94 0 -174.5 -46.5t-127 -127t-46.5 -174.5t46.5 -174.5t127 -127t174.5 -46.5t174.5 46.5t127 127t46.5 174.5t-46.5 174.5t-127 127t-174.5 46.5zM518 253v81q-35 1 -69 -4.5t-57 -14.5t-41 -18.5t-27 -16.5l-9 -7q2 6 5 16.5t18 38t35.5 48.5t59 39t85.5 20
v81l203 -127z" />
    <glyph glyph-name="jiazai4" unicode="&#xe655;" 
d="M739 98v78q0 65 -33.5 119.5t-90.5 83.5q57 29 90.5 83.5t33.5 119.5v78q27 2 45 21t18 45q0 28 -19.5 47t-46.5 19h-448q-27 0 -46.5 -19t-19.5 -47q0 -26 18 -45t45 -21v-78q0 -65 33.5 -119.5t90.5 -83.5q-57 -29 -90.5 -83.5t-33.5 -119.5v-78q-27 -2 -45 -21
t-18 -45q0 -28 19.5 -47t46.5 -19h448q27 0 46.5 19t19.5 47q0 26 -18 45t-45 21zM257 726q0 13 9 22.5t22 9.5h448q13 0 22 -9.5t9 -22.5t-9 -22t-22 -9h-448q-13 0 -22 9t-9 22zM319 176q0 65 40 117t103 69q12 4 12 17v0q0 13 -12 17q-63 17 -103 69t-40 117v78h386v-78
q0 -65 -40 -117t-103 -69q-12 -4 -12 -17v0q0 -13 12 -17q63 -17 103 -69t40 -117v-78h-35q-6 21 -24 35t-41 14h-76v274q61 7 103 53t42 108v17h-324v-17q0 -62 42 -108t103 -53v-274h-76q-23 0 -41 -14t-24 -35h-35v78zM736 0h-448q-13 0 -22 9.5t-9 22.5t9 22t22 9h448
q13 0 22 -9t9 -22t-9 -22.5t-22 -9.5z" />
    <glyph glyph-name="tiaozhuan1" unicode="&#xe6cc;" 
d="M512 896q-140 0 -257.5 -68.5t-186 -186t-68.5 -257.5t68.5 -257.5t186 -186t257.5 -68.5t257.5 68.5t186 186t68.5 257.5t-68.5 257.5t-186 186t-257.5 68.5zM425 55l-67 67l256 256l-262 262l66 66l329 -328z" />
    <glyph glyph-name="zhexiantu3" unicode="&#xe63c;" 
d="M862 522q-24 0 -41.5 -17.5t-17.5 -41.5q0 -12 5 -22l-174 -162q-15 10 -33 10q-8 0 -17 -3l-56 70q7 13 7 26q0 25 -17.5 42t-41.5 17t-41.5 -17t-17.5 -42q0 -3 1 -8l-140 -110q-14 9 -31 9q-24 -1 -41 -18t-17 -41t17 -41t41 -17t41.5 17t17.5 41q0 9 -3 18l135 106
l1 -1v0q16 -13 37 -13q12 0 22 4l54 -67q-9 -15 -9 -31q0 -24 17 -41.5t41.5 -17.5t41.5 17.5t17 41.5q0 7 -2 16l177 165q13 -7 27 -7q24 0 41.5 17.5t17.5 41.5t-17.5 41.5t-41.5 17.5zM247 196q-7 0 -12.5 5.5t-5.5 13t5.5 12.5t12.5 5t12.5 -5t5.5 -12.5t-5.5 -13
t-12.5 -5.5zM465 368q-10 8 -6 20t16.5 12.5t17.5 -11t-4 -19.5v0q-6 -5 -13 -5t-11 3zM602 212q-8 0 -13.5 5.5t-5.5 12.5q0 9 7 14l1 1v0q10 7 21 -0.5t7 -20t-17 -12.5zM862 445q-7 0 -12.5 5t-5.5 12.5t5 13t13 5.5q11 0 16.5 -9t0 -18.5t-16.5 -8.5zM136.5 792
q-13.5 0 -23.5 -9.5t-10 -23.5v-750q0 -14 10 -23.5t23.5 -9.5t23.5 9.5t10 23.5v750q0 14 -10 23.5t-23.5 9.5zM920 9q0 14 -10 23.5t-24 9.5h-750q-13 0 -23 -9.5t-10 -23.5t10 -23.5t23 -9.5h750q14 0 24 9.5t10 23.5z" />
    <glyph glyph-name="shangchuanshuju" unicode="&#xe6ae;" 
d="M502 872q-99 0 -189.5 -38.5t-156 -104t-104 -156t-38.5 -189.5t38.5 -189.5t104 -156t156 -104t189.5 -38.5t189.5 38.5t156 104t104 156t38.5 189.5t-38.5 189.5t-104 156t-156 104t-189.5 38.5zM604 358q-7 -8 -18.5 -9.5t-19.5 5.5l-37 29v-169q0 -11 -8 -19t-19 -8
t-19 8t-8 19v169l-37 -29q-8 -7 -19.5 -5.5t-18.5 9.5q-6 8 -6 17v0q0 13 10 22l81 64q7 6 17 6t17 -6l81 -64q10 -9 10 -22q0 -9 -6 -17v0zM801 277q-23 -41 -62 -61t-87 -14q-9 1 -14.5 7t-5.5 15v2q1 9 8.5 15t16.5 5q72 -8 105 53q19 34 16.5 76t-24.5 69
q-38 47 -116 24q-3 -1 -6 -1q-9 0 -15.5 6.5t-6.5 15.5v3q7 54 -43 82q-37 22 -86 19t-82 -29q-58 -45 -34 -135q1 -3 1 -6q0 -9 -6.5 -15.5t-15.5 -6.5h-3q-72 9 -103 -40q-12 -19 -13 -40.5t10 -38.5q28 -45 107 -36h2q9 0 15.5 -6.5t6.5 -15.5t-5.5 -15t-13.5 -7
q-14 -2 -27 -2q-86 0 -122 58q-18 29 -17 63.5t19 63.5q38 59 116 61q-14 99 55 153q44 34 106.5 38t111.5 -24q59 -34 65 -96q86 15 134 -45q31 -38 34.5 -93t-21.5 -102z" />
  </font>
</defs>
</svg>
